<svg width="38" height="38" xmlns="http://www.w3.org/2000/svg">

 <g>
  <title>background</title>
  <rect fill="none" id="canvas_background" height="402" width="582" y="-1" x="-1"/>
 </g>
 <g>
  <title>Layer 1</title>
  <path id="svg_1" fill="#000000" d="m38,19.1161c0,-10.55753 -8.5066,-19.1161 -19,-19.1161c-10.49342,0 -19,8.55857 -19,19.1161c0,9.5414 6.94803,17.4498 16.0312,18.8839l0,-13.3581l-4.8242,0l0,-5.5258l4.8242,0l0,-4.2115c0,-4.791 2.8366,-7.43737 7.1766,-7.43737c2.0788,0 4.2531,0.37336 4.2531,0.37336l0,4.70441l-2.3958,0c-2.3603,0 -3.0963,1.4735 -3.0963,2.9852l0,3.5859l5.2695,0l-0.8424,5.5258l-4.4271,0l0,13.3581c9.0832,-1.4341 16.0312,-9.3425 16.0312,-18.8839z"/>
 </g>
</svg>